<?xml version="1.0" encoding="UTF-8"?>
<svg id="Ebene_1_Kopie" data-name="Ebene 1 Kopie" xmlns="http://www.w3.org/2000/svg" viewBox="0 0 270.761 63.429">
  <defs>
    <style>
      .cls-1 {
        fill: #80bc00;
      }

      .cls-1, .cls-2, .cls-3 {
        stroke-width: 0px;
      }

      .cls-2 {
        fill: #fff;
      }

      .cls-3 {
        fill: #212322;
      }
    </style>
  </defs>
  <g>
    <polygon class="cls-1" points="174.638 37.109 161.721 37.109 160.54 39.664 158.593 43.879 148.699 43.879 150.821 39.664 152.107 37.109 155.725 29.932 171.363 29.932 174.638 37.109"/>
    <g>
      <g>
        <path class="cls-3" d="M133.316,9.68c3.794,0,6.102.718,7.845,2.461,1.743,1.743,2.41,3.948,2.41,7.794v2.564c0,6.563-2,9.383-7.23,10.203l8.256,11.178h-9.589l-7.537-11.127h-9.537v11.127h-8.563V9.68h23.946ZM131.931,25.216c2.41,0,3.076-.564,3.076-2.564v-2.871c0-2-.667-2.564-3.076-2.564h-13.998v7.999h13.998Z"/>
        <path class="cls-3" d="M204.075,33.933c.359,1.948,1.179,2.41,4.102,2.41h9.844c2.41,0,3.077-.564,3.077-2.564v-1.025c0-2-.666-2.564-3.077-2.564h-12.254c-3.794,0-6.153-.718-7.845-2.461-1.538-1.538-2.41-4.051-2.41-6.768v-2.051c0-2.717.872-5.179,2.41-6.768,1.692-1.744,4-2.461,7.845-2.461h13.69c3.795,0,6.102.718,7.845,2.41,1.59,1.487,2.154,3.179,2.41,6.512l-8.563,1.025c-.359-1.949-1.179-2.41-4.102-2.41h-9.845c-2.41,0-3.077.565-3.077,2.564v1.026c0,2,.667,2.564,3.077,2.564h12.255c3.795,0,6.153.718,7.845,2.461,1.539,1.538,2.41,4.051,2.41,6.768v2.051c0,2.717-.872,5.179-2.41,6.768-1.692,1.744-3.999,2.461-7.845,2.461h-13.69c-3.794,0-6.102-.718-7.845-2.41-1.59-1.487-2.154-3.179-2.41-6.512l8.563-1.025Z"/>
        <polygon class="cls-3" points="256.888 43.881 248.325 43.881 248.325 17.218 235.147 17.218 235.147 9.68 270.014 9.68 270.014 17.218 256.888 17.218 256.888 43.881"/>
        <polygon class="cls-2" points="190.385 43.88 180.487 43.88 169.567 19.934 168.168 23.036 166.205 27.383 157.006 27.383 163.931 13.645 165.405 10.714 165.979 9.579 173.155 9.579 190.385 43.88"/>
        <polygon class="cls-3" points="190.385 43.88 180.487 43.88 169.567 19.934 168.168 23.036 166.205 27.383 157.006 27.383 163.931 13.645 165.405 10.714 165.979 9.579 173.155 9.579 190.385 43.88"/>
        <g>
          <polygon class="cls-3" points="21.399 .411 21.399 12.047 32.718 18.581 32.718 31.658 21.399 38.191 10.075 31.658 10.075 31.653 0 25.84 0 37.471 21.399 49.828 42.793 37.471 42.793 12.767 21.399 .411"/>
          <polygon class="cls-1" points="21.399 19.306 21.399 30.938 10.075 24.399 2.519 20.037 0 18.581 0 5.818 10.075 0 10.075 12.768 15.112 15.674 21.399 19.306"/>
        </g>
      </g>
      <path class="cls-3" d="M98.68,27.165c-.513-.41-1.077-.667-2.256-1.077,2.205-1.282,2.974-2.923,2.974-6.461v-.666c0-6.358-3.179-9.281-10.152-9.281h-22.253v7.536h11.412c.014,0,.025.001.039.001h9.418c2.41,0,3.077.564,3.077,2.564v1.025c0,2-.667,2.564-3.077,2.564h-12.306s-8.563-.001-8.563-.001v20.511h23.946c6.974,0,10.204-2.923,10.204-9.229v-.718c0-3.179-.82-5.435-2.461-6.768ZM92.629,33.779c0,2-.615,2.564-3.076,2.564h-13.998v-6.153h13.998c2.461,0,3.076.564,3.076,2.564v1.026Z"/>
    </g>
  </g>
  <g>
    <path class="cls-3" d="M67.976,61.772v-11.875h6.32v2.047h-4.125v2.891h3.953v2.047h-3.953v2.844h4.125v2.047h-6.32Z"/>
    <path class="cls-3" d="M76.619,49.952h2.133v1.945h-2.133v-1.945ZM76.619,52.897h2.133v8.875h-2.133v-8.875Z"/>
    <path class="cls-3" d="M80.911,61.772v-8.875h1.969v.719c.692-.667,1.508-1,2.445-1,1.01,0,1.841.315,2.492.945.651.625.977,1.646.977,3.062v5.148h-2.133v-4.562c0-1.766-.594-2.648-1.781-2.648-.558,0-1.003.2-1.336.602-.333.401-.5,1.112-.5,2.133v4.477h-2.133Z"/>
    <path class="cls-3" d="M90.343,52.897h.75c.052-1.073.367-1.883.945-2.43.583-.547,1.252-.82,2.008-.82h.555v2.125h-.211c-.776,0-1.164.339-1.164,1.016v.109h1.25v1.891h-1.25v6.984h-2.133v-6.984h-.75v-1.891Z"/>
    <path class="cls-3" d="M104.83,52.897v8.875h-1.961v-1.094c-.245.349-.677.667-1.297.953-.615.281-1.227.422-1.836.422-1.208,0-2.227-.445-3.055-1.336-.823-.896-1.234-2.011-1.234-3.344,0-1.359.417-2.492,1.25-3.398.838-.906,1.901-1.359,3.188-1.359,1.25,0,2.245.5,2.984,1.5v-1.219h1.961ZM100.189,54.561c-.688,0-1.294.261-1.82.781-.526.521-.789,1.192-.789,2.016,0,.745.252,1.391.758,1.938.505.542,1.122.812,1.852.812.76,0,1.385-.261,1.875-.781.489-.521.734-1.177.734-1.969,0-.761-.234-1.417-.703-1.969-.464-.552-1.099-.828-1.906-.828Z"/>
    <path class="cls-3" d="M113.364,58.928h2.398c-.328.906-.883,1.653-1.664,2.242-.776.589-1.708.883-2.797.883-1.266,0-2.362-.458-3.289-1.375-.922-.922-1.383-2.023-1.383-3.305,0-1.349.456-2.479,1.367-3.391.911-.911,2.013-1.367,3.305-1.367.927,0,1.82.278,2.68.836.859.552,1.453,1.356,1.781,2.414h-2.398c-.401-.87-1.083-1.305-2.047-1.305-.755,0-1.37.255-1.844.766-.474.511-.711,1.188-.711,2.031,0,.792.263,1.448.789,1.969.531.521,1.12.781,1.766.781.417,0,.805-.091,1.164-.273.364-.183.659-.484.883-.906Z"/>
    <path class="cls-3" d="M117.585,49.897h2.133v3.594c.599-.583,1.354-.875,2.266-.875,1.016,0,1.849.31,2.5.93.656.614.984,1.641.984,3.078v5.148h-2.133v-4.562c0-1.766-.607-2.648-1.82-2.648-1.198,0-1.797.894-1.797,2.68v4.531h-2.133v-11.875Z"/>
    <path class="cls-3" d="M127.932,59.639h2.133v2.133h-2.133v-2.133Z"/>
    <path class="cls-3" d="M133.685,49.897h3.047l3.148,9,3.109-9h3.047v11.875h-2.195v-9.047l-3.055,9.047h-1.852l-3.054-9.047v9.047h-2.195v-11.875Z"/>
    <path class="cls-3" d="M150.234,58.303c.442,1.203,1.271,1.805,2.484,1.805.942,0,1.617-.394,2.023-1.18h2.195c-.239.781-.737,1.497-1.492,2.148s-1.648.977-2.68.977c-1.396,0-2.534-.461-3.414-1.383-.875-.927-1.312-2.026-1.312-3.297,0-1.375.445-2.511,1.336-3.406.896-.901,2.008-1.352,3.336-1.352,1.245,0,2.31.456,3.195,1.367s1.328,1.989,1.328,3.234c0,.417-.034.778-.102,1.086h-6.898ZM150.203,56.592h4.836c-.266-1.354-1.065-2.031-2.398-2.031-1.255,0-2.067.677-2.438,2.031Z"/>
    <path class="cls-3" d="M159.096,49.897h2.133v3.594c.599-.583,1.354-.875,2.266-.875,1.016,0,1.849.31,2.5.93.656.614.984,1.641.984,3.078v5.148h-2.133v-4.562c0-1.766-.606-2.648-1.82-2.648-1.198,0-1.797.894-1.797,2.68v4.531h-2.133v-11.875Z"/>
    <path class="cls-3" d="M169.279,52.897h1.969v.898c.427-.786,1.039-1.18,1.836-1.18h.203v2.062c-.651.042-1.128.227-1.43.555-.297.328-.445.8-.445,1.414v5.125h-2.133v-8.875Z"/>
    <path class="cls-3" d="M175.008,59.639h2.133v2.133h-2.133v-2.133Z"/>
    <path class="cls-3" d="M180.76,61.772v-11.875h2.875c2.255,0,3.914.567,4.977,1.703,1.062,1.13,1.594,2.573,1.594,4.328,0,1.526-.513,2.883-1.539,4.07-1.026,1.183-2.776,1.773-5.25,1.773h-2.656ZM182.956,59.725h.594c1.448,0,2.552-.339,3.312-1.016.766-.677,1.148-1.614,1.148-2.812,0-1.183-.386-2.136-1.156-2.859-.771-.729-1.771-1.094-3-1.094h-.898v7.781Z"/>
    <path class="cls-3" d="M192.419,52.897h1.969v.898c.427-.786,1.039-1.18,1.836-1.18h.203v2.062c-.651.042-1.128.227-1.43.555-.297.328-.445.8-.445,1.414v5.125h-2.133v-8.875Z"/>
    <path class="cls-3" d="M197.852,49.952h2.133v1.945h-2.133v-1.945ZM197.852,52.897h2.133v8.875h-2.133v-8.875Z"/>
    <path class="cls-3" d="M202.144,61.772v-8.875h1.969v.719c.692-.667,1.508-1,2.445-1,1.011,0,1.841.315,2.492.945.651.625.977,1.646.977,3.062v5.148h-2.133v-4.562c0-1.766-.594-2.648-1.781-2.648-.558,0-1.003.2-1.336.602s-.5,1.112-.5,2.133v4.477h-2.133Z"/>
    <path class="cls-3" d="M212.49,59.639h2.133v2.133h-2.133v-2.133Z"/>
  </g>
</svg>